<svg width="46" height="50" viewBox="0 0 46 50" fill="none" xmlns="http://www.w3.org/2000/svg">
<path d="M2.07556 6.80472C4.70263 11.0088 11.6358 11.1917 15.889 16.1138C20.5149 21.4672 23.7679 28.3056 23.3358 32.6298C22.2392 36.2396 21.6219 40.0457 21.2943 43.6145C18.3915 40.8538 10.8376 36.6053 6.88022 29.9272C2.17845 21.9929 1.77526 12.7105 2.07556 6.80472Z" fill="#419D21" stroke="#419D21" stroke-width="3" stroke-linecap="round" stroke-linejoin="round"/>
<path d="M43.816 2.05536C38.9358 7.16009 34.5353 5.85254 30.0028 10.1632C26.7992 13.2102 24.6978 17.3909 23.3358 21.8745C22.2393 25.4843 21.6219 29.2904 21.2944 32.8592C20.6335 40.0592 21.1521 46.2932 21.2944 48C21.2944 36.8892 23.0959 36.2886 32.1046 28.7813C41.1134 21.274 45.0172 0.798846 43.816 2.05536Z" fill="#55B20B" stroke="#55B20B" stroke-width="3" stroke-linecap="round" stroke-linejoin="round"/>
</svg>
