<?xml version="1.0" standalone="no"?>
<!DOCTYPE svg PUBLIC "-//W3C//DTD SVG 20010904//EN"
 "http://www.w3.org/TR/2001/REC-SVG-20010904/DTD/svg10.dtd">
<svg version="1.0" xmlns="http://www.w3.org/2000/svg"
 width="800.000000pt" height="800.000000pt" viewBox="0 0 800.000000 800.000000"
 preserveAspectRatio="xMidYMid meet">
<metadata>
Created by potrace 1.14, written by Peter Selinger 2001-2017
</metadata>
<g transform="translate(0.000000,800.000000) scale(0.100000,-0.100000)"
fill="#000000" stroke="none">
<path d="M7290 7913 c-53 -16 -105 -50 -171 -115 -103 -99 -146 -137 -199
-178 -63 -49 -69 -54 -83 -66 -7 -6 -17 -13 -22 -15 -9 -3 -57 -34 -155 -99
-54 -35 -281 -141 -375 -175 -27 -10 -54 -22 -60 -25 -5 -4 -39 -17 -75 -29
-36 -12 -74 -26 -85 -31 -11 -5 -81 -32 -155 -60 -74 -28 -155 -60 -180 -71
-25 -12 -61 -28 -80 -36 -19 -8 -42 -19 -50 -23 -8 -5 -37 -20 -65 -33 -27
-13 -79 -41 -115 -63 -36 -21 -78 -45 -93 -53 -15 -8 -27 -18 -27 -23 0 -4 -4
-8 -10 -8 -11 0 -113 -71 -118 -82 -2 -5 -8 -8 -13 -8 -5 0 -17 -8 -27 -17
-10 -10 -43 -38 -73 -63 -121 -100 -344 -338 -456 -485 -68 -90 -97 -131 -160
-225 -147 -221 -303 -517 -408 -775 -31 -77 -60 -149 -65 -160 -10 -24 -41
-109 -70 -190 -18 -50 -60 -182 -88 -272 -7 -22 -21 -31 -23 -15 0 4 -7 14
-15 23 -8 9 -11 19 -7 22 3 4 2 7 -3 7 -5 0 -22 26 -39 57 -16 32 -38 66 -47
77 -10 11 -18 26 -18 33 0 7 -4 13 -10 13 -5 0 -10 5 -10 11 0 5 -44 76 -97
156 -54 80 -102 153 -108 162 -5 9 -13 18 -16 21 -3 3 -20 28 -39 55 -19 28
-36 52 -39 55 -4 3 -25 30 -47 60 -23 30 -51 66 -63 80 -11 14 -25 30 -31 37
-5 7 -10 16 -10 22 0 5 -4 11 -9 13 -4 2 -45 46 -89 99 -118 141 -263 283
-377 369 -22 17 -47 37 -57 45 -42 35 -208 141 -324 208 -106 60 -375 198
-394 202 -3 1 -41 18 -85 39 -44 20 -107 49 -140 64 -33 14 -61 30 -63 34 -2
4 -10 8 -18 8 -28 0 -349 168 -456 239 -121 80 -240 193 -317 298 -69 95 -131
128 -224 120 -75 -6 -114 -25 -162 -78 -57 -63 -63 -90 -69 -305 -2 -67 -6
-127 -10 -133 -4 -6 -4 -11 1 -11 6 0 9 -142 3 -152 -2 -4 -2 -161 0 -168 1
-3 3 -63 5 -135 4 -131 12 -284 20 -385 3 -30 7 -80 9 -110 2 -30 4 -55 5 -55
1 0 4 -22 6 -50 3 -27 7 -66 9 -85 2 -19 7 -62 10 -95 4 -33 8 -69 11 -80 2
-11 7 -42 10 -70 4 -27 8 -57 10 -65 3 -8 7 -33 10 -55 3 -22 11 -67 17 -100
6 -33 12 -67 13 -75 1 -8 4 -24 8 -35 3 -11 8 -38 12 -60 3 -22 10 -56 15 -75
5 -19 12 -48 14 -65 6 -33 84 -327 110 -415 9 -30 18 -63 21 -73 2 -9 7 -22
11 -28 4 -6 10 -25 14 -43 9 -34 85 -249 100 -281 5 -11 29 -69 54 -130 24
-60 62 -149 85 -198 22 -48 41 -91 41 -95 1 -4 5 -11 10 -17 4 -5 32 -57 63
-115 30 -58 68 -129 86 -158 17 -29 31 -57 31 -62 0 -6 5 -10 10 -10 6 0 10
-7 10 -15 0 -8 5 -15 10 -15 6 0 9 -3 8 -7 -3 -10 72 -127 84 -131 4 -2 8 -8
8 -14 0 -6 14 -27 30 -48 17 -21 30 -42 30 -48 0 -6 3 -12 8 -14 4 -1 29 -32
56 -67 53 -71 64 -84 86 -110 8 -9 36 -42 61 -74 98 -119 344 -375 485 -504
93 -85 136 -123 189 -168 32 -27 63 -54 69 -60 45 -41 186 -155 192 -155 4 0
12 -6 18 -14 13 -16 206 -168 351 -276 114 -85 110 -82 150 -113 17 -13 71
-54 120 -92 50 -38 92 -72 93 -77 2 -4 8 -8 13 -8 5 0 43 -28 84 -61 60 -50
75 -67 74 -88 -1 -26 7 -183 17 -321 3 -41 7 -102 9 -135 15 -234 32 -283 122
-343 49 -32 64 -37 122 -38 36 -1 72 4 80 10 8 6 16 10 18 8 2 -1 16 4 31 12
27 14 99 86 86 86 -4 0 0 8 8 18 19 21 18 17 23 187 4 190 15 458 20 525 2 30
6 89 10 130 3 41 7 86 9 100 2 14 7 48 11 75 7 63 23 143 42 220 8 33 16 71
19 85 2 14 7 32 11 40 8 19 8 19 18 54 10 37 61 152 102 231 85 164 297 409
538 620 38 33 79 70 92 82 13 11 43 36 65 55 41 32 83 68 117 98 9 8 66 55
126 105 61 49 121 99 135 111 14 13 108 91 210 175 163 134 432 390 498 474
13 17 57 71 97 120 40 50 105 135 143 190 39 55 76 105 82 112 5 7 10 17 10
23 0 5 5 10 10 10 6 0 10 4 10 10 0 5 29 55 65 110 36 55 65 103 65 107 0 4 6
14 14 22 7 9 28 43 46 76 18 33 44 80 58 105 27 49 224 435 222 435 -1 0 12
29 28 65 61 133 81 179 150 350 84 208 86 213 84 223 -1 4 2 7 6 7 5 0 9 6 9
13 1 6 16 50 33 97 29 77 118 331 124 355 2 6 6 17 9 25 21 53 169 564 183
630 3 14 10 43 16 65 6 22 12 45 14 50 1 6 16 72 33 148 17 77 33 151 36 165
3 15 7 38 11 52 3 14 7 39 9 55 2 17 5 31 6 33 3 4 5 14 13 72 4 30 10 64 11
75 17 96 23 246 12 309 -15 84 -72 162 -143 196 -42 21 -129 33 -164 23z"/>
</g>
</svg>
