<svg width="193" height="50" viewBox="0 0 193 50" fill="none" xmlns="http://www.w3.org/2000/svg">
<path d="M2.07556 6.80472C4.70263 11.0088 11.6358 11.1917 15.889 16.1138C20.5149 21.4672 23.7679 28.3056 23.3358 32.6298C22.2392 36.2396 21.6219 40.0457 21.2943 43.6145C18.3915 40.8538 10.8376 36.6053 6.88022 29.9272C2.17845 21.9929 1.77526 12.7105 2.07556 6.80472Z" fill="#419D21" stroke="#419D21" stroke-width="3" stroke-linecap="round" stroke-linejoin="round"/>
<path d="M43.816 2.05536C38.9358 7.16009 34.5353 5.85254 30.0028 10.1632C26.7992 13.2102 24.6978 17.3909 23.3358 21.8745C22.2393 25.4843 21.6219 29.2904 21.2944 32.8592C20.6335 40.0592 21.1521 46.2932 21.2944 48C21.2944 36.8892 23.0959 36.2886 32.1046 28.7813C41.1134 21.274 45.0172 0.798849 43.816 2.05536Z" fill="#55B20B" stroke="#55B20B" stroke-width="3" stroke-linecap="round" stroke-linejoin="round"/>
<path d="M62.4364 35.5054C62.702 35.7246 63.0378 36.022 63.444 36.3976C63.8657 36.7576 64.3422 37.1177 64.8733 37.4777C65.6699 38.0099 66.4588 38.4247 67.2398 38.7221C68.0209 39.0195 68.841 39.1682 69.7001 39.1682C70.4968 39.1682 71.1607 39.0821 71.6918 38.9099C72.2385 38.7221 72.6681 38.4795 72.9805 38.182C73.2929 37.8846 73.5116 37.5403 73.6366 37.149C73.7772 36.7576 73.8475 36.3429 73.8475 35.9046C73.8475 35.4193 73.66 34.9889 73.2851 34.6132C72.9258 34.2219 72.4806 33.8776 71.9495 33.5801C71.4184 33.2827 70.8639 33.0323 70.2859 32.8288C69.7079 32.6097 69.2081 32.4297 68.7863 32.2888C66.9118 31.6314 65.2716 30.927 63.8657 30.1757C62.4599 29.4087 61.2883 28.5634 60.351 27.6399C59.4138 26.7008 58.7108 25.6755 58.2422 24.5642C57.7736 23.4372 57.5393 22.185 57.5393 20.8075C57.5393 19.3518 57.8283 18.0292 58.4062 16.8396C58.9998 15.65 59.8355 14.6325 60.9134 13.7873C62.0068 12.942 63.319 12.2925 64.8498 11.8385C66.3807 11.3689 68.0912 11.1342 69.9813 11.1342C71.4028 11.1342 72.7618 11.2985 74.0584 11.6272C75.3705 11.9403 76.6592 12.449 77.9245 13.1534C78.4556 13.4664 78.9555 13.7951 79.4241 14.1395C79.9084 14.4682 80.3301 14.7891 80.6894 15.1021C81.0487 15.4152 81.3299 15.7126 81.5329 15.9943C81.7516 16.2761 81.861 16.5187 81.861 16.7222C81.861 16.9257 81.8063 17.1135 81.697 17.2857C81.6032 17.4579 81.4548 17.6535 81.2518 17.8726L77.6668 21.6997C77.4012 21.9658 77.1357 22.0989 76.8701 22.0989C76.6514 22.0989 76.4483 22.0363 76.2609 21.911C76.0891 21.7858 75.8938 21.6293 75.6751 21.4415L75.4642 21.2536C75.1518 20.9875 74.8003 20.7136 74.4098 20.4319C74.0349 20.1501 73.6288 19.8997 73.1914 19.6805C72.754 19.4457 72.2932 19.2579 71.8089 19.117C71.3247 18.9605 70.8326 18.8822 70.3328 18.8822C69.8173 18.8822 69.333 18.9292 68.88 19.0231C68.427 19.1014 68.0287 19.2344 67.685 19.4223C67.3414 19.6101 67.068 19.8605 66.8649 20.1736C66.6619 20.471 66.5603 20.8388 66.5603 21.2771C66.5603 21.7154 66.6697 22.0989 66.8884 22.4276C67.1071 22.7406 67.4351 23.038 67.8725 23.3198C68.3099 23.5859 68.8488 23.8442 69.4892 24.0946C70.1453 24.3294 70.9029 24.5877 71.7621 24.8694C73.4179 25.4173 74.9409 25.9964 76.3312 26.6069C77.7371 27.2017 78.9477 27.9139 79.963 28.7435C80.9784 29.5574 81.7673 30.5357 82.3296 31.6783C82.9076 32.821 83.1966 34.2063 83.1966 35.8341C83.1966 37.5559 82.8451 39.1212 82.1422 40.53C81.4392 41.923 80.4707 43.1126 79.2367 44.0988C78.0182 45.0849 76.5811 45.8519 74.9253 46.3997C73.2695 46.9319 71.4887 47.198 69.583 47.198C67.7866 47.198 66.0214 46.8771 64.2875 46.2354C62.5536 45.5936 60.9368 44.7327 59.4372 43.6527C58.8124 43.1987 58.2813 42.7526 57.8439 42.3144C57.4221 41.8761 57.0863 41.5239 56.8363 41.2578L56.766 41.1874C56.7504 41.1561 56.7348 41.1404 56.7192 41.1404C56.7036 41.1248 56.6879 41.1091 56.6723 41.0934C56.6567 41.0621 56.6411 41.0465 56.6255 41.0465C56.6098 41.0308 56.5942 41.0152 56.5786 40.9995C56.2193 40.6082 56.0397 40.2952 56.0397 40.0604C56.0397 39.7943 56.2193 39.4969 56.5786 39.1682L60.6322 35.2941C60.9602 35.0593 61.2258 34.9419 61.4289 34.9419C61.5695 34.9419 61.7179 34.9889 61.8741 35.0828C62.0303 35.1767 62.2177 35.3176 62.4364 35.5054Z" fill="white"/>
<path d="M108.092 43.1831C106.718 44.4509 105.171 45.4449 103.453 46.1649C101.735 46.8693 99.9148 47.2215 97.9934 47.2215C95.8534 47.2215 93.8305 46.8302 91.9247 46.0475C90.019 45.2649 88.3475 44.1848 86.9104 42.8074C85.4733 41.4143 84.333 39.7786 83.4895 37.9003C82.6459 36.022 82.2242 33.9793 82.2242 31.7723C82.2242 30.3948 82.3882 29.0643 82.7162 27.7808C83.0599 26.4816 83.5363 25.2686 84.1455 24.1416C84.7704 23.0146 85.5202 21.9815 86.3949 21.0423C87.2853 20.0875 88.2773 19.2736 89.3707 18.6005C90.4642 17.9274 91.6514 17.4031 92.9323 17.0274C94.2132 16.6517 95.5644 16.4639 96.9859 16.4639C98.2824 16.4639 99.5399 16.6361 100.758 16.9804C101.977 17.3248 103.117 17.81 104.179 18.4361C105.257 19.0623 106.241 19.8136 107.132 20.6901C108.022 21.5667 108.787 22.5293 109.428 23.5781C110.068 24.6111 110.56 25.7225 110.904 26.9121C111.263 28.086 111.443 29.2991 111.443 30.5513C111.443 31.3653 111.427 32.0305 111.396 32.5471C111.381 33.0636 111.263 33.4784 111.045 33.7915C110.826 34.0889 110.459 34.3002 109.943 34.4254C109.444 34.535 108.702 34.5898 107.717 34.5898H90.8469C91.0031 35.5915 91.3155 36.4289 91.7841 37.102C92.2684 37.7751 92.8229 38.3151 93.4478 38.7221C94.0726 39.1134 94.7365 39.3951 95.4394 39.5673C96.1424 39.7395 96.8063 39.8256 97.4311 39.8256C97.9934 39.8256 98.5714 39.7708 99.165 39.6612C99.7586 39.536 100.329 39.3795 100.875 39.1916C101.438 38.9882 101.946 38.7612 102.399 38.5108C102.867 38.2447 103.242 37.9707 103.523 37.689C103.773 37.4855 103.984 37.3368 104.156 37.2429C104.343 37.1333 104.539 37.0785 104.742 37.0785C104.945 37.0785 105.148 37.149 105.351 37.2898C105.57 37.4307 105.812 37.6342 106.077 37.9003L108.561 40.7178C108.733 40.9213 108.842 41.1091 108.889 41.2813C108.936 41.4378 108.959 41.6021 108.959 41.7743C108.959 42.0874 108.873 42.3613 108.702 42.5961C108.53 42.8152 108.327 43.0109 108.092 43.1831ZM96.8219 23.625C96.2127 23.625 95.6191 23.7502 95.0411 24.0007C94.4787 24.2355 93.9476 24.5564 93.4478 24.9633C92.9479 25.3703 92.4949 25.8321 92.0888 26.3486C91.6982 26.8651 91.378 27.3895 91.1281 27.9217H103.101C102.773 27.3112 102.414 26.7477 102.024 26.2312C101.649 25.7147 101.211 25.2607 100.711 24.8694C100.227 24.4781 99.6649 24.1729 99.0244 23.9537C98.3996 23.7346 97.6654 23.625 96.8219 23.625Z" fill="white"/>
<path d="M112.419 9.83189C112.419 9.331 112.543 8.90838 112.793 8.56402C113.043 8.21966 113.473 8.04748 114.082 8.04748H119.823C119.979 8.04748 120.143 8.09444 120.315 8.18835C120.487 8.26662 120.643 8.38401 120.784 8.54054C120.94 8.69707 121.065 8.8849 121.158 9.10404C121.268 9.32318 121.322 9.56579 121.322 9.83189V45.4136C121.322 46.0084 121.151 46.4623 120.807 46.7754C120.479 47.0728 120.049 47.2215 119.518 47.2215H114.082C113.473 47.2215 113.043 47.0728 112.793 46.7754C112.543 46.4623 112.419 46.0084 112.419 45.4136V9.83189Z" fill="white"/>
<path d="M148.184 43.1478C146.81 44.4157 145.263 45.4096 143.545 46.1296C141.827 46.834 140.007 47.1862 138.085 47.1862C135.945 47.1862 133.923 46.7949 132.017 46.0122C130.111 45.2296 128.44 44.1496 127.002 42.7721C125.565 41.379 124.425 39.7433 123.581 37.865C122.738 35.9867 122.316 33.944 122.316 31.737C122.316 30.3595 122.48 29.0291 122.808 27.7455C123.152 26.4464 123.628 25.2333 124.238 24.1063C124.862 22.9793 125.612 21.9462 126.487 21.007C127.377 20.0522 128.369 19.2383 129.463 18.5652C130.556 17.8921 131.743 17.3678 133.024 16.9921C134.305 16.6164 135.656 16.4286 137.078 16.4286C138.374 16.4286 139.632 16.6008 140.85 16.9452C142.069 17.2895 143.209 17.7747 144.271 18.4009C145.349 19.027 146.333 19.7783 147.224 20.6549C148.114 21.5314 148.88 22.494 149.52 23.5428C150.16 24.5759 150.652 25.6872 150.996 26.8768C151.355 28.0508 151.535 29.2638 151.535 30.5161C151.535 31.33 151.519 31.9952 151.488 32.5118C151.473 33.0283 151.355 33.4431 151.137 33.7562C150.918 34.0536 150.551 34.2649 150.035 34.3901C149.536 34.4997 148.794 34.5545 147.809 34.5545H130.939C131.095 35.5562 131.408 36.3937 131.876 37.0667C132.36 37.7398 132.915 38.2798 133.54 38.6868C134.165 39.0781 134.829 39.3598 135.531 39.532C136.234 39.7042 136.898 39.7903 137.523 39.7903C138.085 39.7903 138.663 39.7355 139.257 39.6259C139.851 39.5007 140.421 39.3442 140.968 39.1564C141.53 38.9529 142.038 38.7259 142.491 38.4755C142.959 38.2094 143.334 37.9354 143.615 37.6537C143.865 37.4502 144.076 37.3015 144.248 37.2076C144.435 37.098 144.631 37.0432 144.834 37.0432C145.037 37.0432 145.24 37.1137 145.443 37.2546C145.662 37.3954 145.904 37.5989 146.169 37.865L148.653 40.6825C148.825 40.886 148.934 41.0738 148.981 41.246C149.028 41.4025 149.051 41.5669 149.051 41.739C149.051 42.0521 148.965 42.326 148.794 42.5608C148.622 42.78 148.419 42.9756 148.184 43.1478ZM136.914 23.5897C136.305 23.5897 135.711 23.715 135.133 23.9654C134.571 24.2002 134.04 24.5211 133.54 24.928C133.04 25.335 132.587 25.7968 132.181 26.3133C131.79 26.8298 131.47 27.3542 131.22 27.8864H143.194C142.865 27.2759 142.506 26.7125 142.116 26.1959C141.741 25.6794 141.303 25.2254 140.804 24.8341C140.319 24.4428 139.757 24.1376 139.116 23.9184C138.492 23.6993 137.757 23.5897 136.914 23.5897Z" fill="white"/>
<path d="M152.425 6.44103C152.425 5.95579 152.582 5.59578 152.894 5.36099C153.222 5.11055 153.683 4.87575 154.277 4.65662L159.595 2.80177C159.674 2.78612 159.744 2.77829 159.806 2.77829C159.884 2.77829 159.955 2.77829 160.017 2.77829C160.595 2.77829 160.978 2.95047 161.165 3.29483C161.368 3.62354 161.47 4.06181 161.47 4.60966L161.446 12.4121H164.657C165.156 12.4121 165.563 12.5608 165.875 12.8582C166.187 13.1556 166.344 13.6017 166.344 14.1965V18.728C166.344 19.3854 166.187 19.8707 165.875 20.1837C165.563 20.4811 165.156 20.6298 164.657 20.6298H161.446L161.47 45.3551C161.47 45.9499 161.298 46.4038 160.954 46.7169C160.611 47.0143 160.134 47.163 159.525 47.163H154.23C153.027 47.163 152.425 46.5603 152.425 45.3551L152.402 20.5885H149.989C148.786 20.5885 148.184 19.9545 148.184 18.6867V14.1552C148.184 12.9656 148.786 12.3708 149.989 12.3708H152.402L152.425 6.44103Z" fill="white"/>
<path d="M162.207 32.5965C162.207 31.1564 162.387 28.9702 162.746 27.6397C163.121 26.3093 163.637 25.0805 164.293 23.9535C164.965 22.8109 165.761 21.7778 166.683 20.8543C167.62 19.9151 168.659 19.1168 169.799 18.4594C170.939 17.802 172.166 17.2933 173.478 16.9333C174.806 16.5733 176.188 16.3933 177.625 16.3933C179.75 16.3933 181.741 16.7924 183.6 17.5907C185.475 18.3733 187.099 19.4612 188.474 20.8543C189.864 22.2317 190.958 23.8596 191.754 25.7379C192.567 27.6006 192.973 29.6198 192.973 31.7955C192.973 33.2356 192.785 34.6209 192.41 35.9513C192.051 37.2662 191.536 38.4949 190.864 39.6376C190.208 40.7802 189.411 41.8211 188.474 42.7603C187.552 43.6838 186.521 44.4821 185.381 45.1551C184.241 45.8125 183.014 46.3213 181.702 46.6813C180.406 47.0413 179.047 47.2213 177.625 47.2213C176.188 47.2213 174.806 47.0413 173.478 46.6813C172.166 46.3213 170.939 45.8125 169.799 45.1551C168.659 44.4821 167.62 43.6838 166.683 42.7603C165.761 41.8211 164.965 40.7802 164.293 39.6376C163.637 38.4949 163.121 37.2662 162.746 35.9513C162.387 34.6209 162.207 34.0365 162.207 32.5965ZM170.76 31.7955C170.76 32.8286 170.916 33.7991 171.228 34.707C171.557 35.5992 172.01 36.374 172.587 37.0314C173.181 37.6888 173.892 38.2132 174.72 38.6045C175.563 38.9801 176.508 39.168 177.555 39.168C178.57 39.168 179.484 38.9801 180.296 38.6045C181.124 38.2132 181.819 37.6888 182.382 37.0314C182.96 36.374 183.397 35.5992 183.694 34.707C184.006 33.7991 184.163 32.8286 184.163 31.7955C184.163 30.7938 184.006 29.839 183.694 28.9311C183.397 28.0232 182.96 27.225 182.382 26.5362C181.819 25.8475 181.124 25.3075 180.296 24.9162C179.484 24.5092 178.57 24.3057 177.555 24.3057C176.508 24.3057 175.563 24.5092 174.72 24.9162C173.892 25.3075 173.181 25.8475 172.587 26.5362C172.01 27.225 171.557 28.0232 171.228 28.9311C170.916 29.839 170.76 30.7938 170.76 31.7955Z" fill="white"/>
</svg>
